# xmcd
#
# Track frame offsets:
#	150
#	11670
#	25215
#	38037
#	51130
#	64637
#	77045
#	88312
#	99682
#	110615
#	123602
#	135927
#	148665
#	161292
#	172570
#	184945
#	195525
#	206800
#	218042
#	227897
#	239080
#	251947
#	263147
#	273290
#	284035
#	298392
#	311552
#	324450
#	337497
#
# Disc length: 4666 seconds
#
# Revision: 0
# Processed by: cddbd v1.5.2PL0 Copyright (c) Steve Scherf et al.
# Submitted via: EasyCDDAExtractor 10.0.3.1
#
DISCID=c412381d
DTITLE=Red Foley - Old Shep (The Red Foley Recordings, 1933-50) - Disc 2
DYEAR=2006
DGENRE=Country
TTITLE0=Ridin' On A Rainbow
TTITLE1=Montana Moon
TTITLE2=It Makes No Never Mind
TTITLE3=Nobody
TTITLE4=I Don't Care Anymore
TTITLE5=Ridin' Home
TTITLE6=Be Honest With Me
TTITLE7=I Ain't Lazy, I'm Just Dreamin'
TTITLE8=I'll Be Back In A Year (Little Darlin')
TTITLE9=Where The Mountains Meet The Moon
TTITLE10=Chiquita
TTITLE11=Pals Of The Saddle
TTITLE12=Is It True
TTITLE13=I'm Looking For A Sweetheart
TTITLE14=Someday, Somewhere, Sweetheart
TTITLE15=Will You Wait For Me, Little Darlin'
TTITLE16=Night Train To Memphis
TTITLE17=I Walk Alone
TTITLE18=When I Marry, I'll Marry For Love
TTITLE19=Have I Stay Away Too Long
TTITLE20=You Nearly Lose Your Mind
TTITLE21=Don't Make Me Go To Bed And I'll Be Good
TTITLE22=The End Of The World
TTITLE23=Rosalie
TTITLE24=Old Shep
TTITLE25=Smoke On The Water
TTITLE26=There's A Blue Star Shining Bright (In A Window, Tonight)
TTITLE27=Hang Your Head In Shame
TTITLE28=You Sang My Love Song To Somebody Else
EXTD=
EXTT0=
EXTT1=
EXTT2=
EXTT3=
EXTT4=
EXTT5=
EXTT6=
EXTT7=
EXTT8=
EXTT9=
EXTT10=
EXTT11=
EXTT12=
EXTT13=
EXTT14=
EXTT15=
EXTT16=
EXTT17=
EXTT18=
EXTT19=
EXTT20=
EXTT21=
EXTT22=
EXTT23=
EXTT24=
EXTT25=
EXTT26=
EXTT27=
EXTT28=
PLAYORDER=
